<svg width="23" height="22" viewBox="0 0 23 22" fill="none" xmlns="http://www.w3.org/2000/svg">
<path d="M11.5 13.75C13.7764 13.75 15.6212 11.9036 15.6212 9.625V4.125C15.6212 1.84643 13.7764 0 11.5 0C9.22364 0 7.37879 1.84643 7.37879 4.125V9.625C7.37879 11.9036 9.22364 13.75 11.5 13.75ZM19.5 9.57589C19.5 9.46786 19.4127 9.37946 19.3061 9.37946H17.8515C17.7448 9.37946 17.6576 9.46786 17.6576 9.57589C17.6576 13.0208 14.9012 15.8125 11.5 15.8125C8.09879 15.8125 5.34242 13.0208 5.34242 9.57589C5.34242 9.46786 5.25515 9.37946 5.14848 9.37946H3.69394C3.58727 9.37946 3.5 9.46786 3.5 9.57589C3.5 13.7181 6.56909 17.1359 10.5303 17.6196V20.1339H7.00788C6.67576 20.1339 6.40909 20.485 6.40909 20.9196V21.8036C6.40909 21.9116 6.47697 22 6.55939 22H16.4406C16.523 22 16.5909 21.9116 16.5909 21.8036V20.9196C16.5909 20.485 16.3242 20.1339 15.9921 20.1339H12.3727V17.6319C16.38 17.19 19.5 13.7525 19.5 9.57589Z" fill="#39345A"/>
</svg>
