<svg width="23" height="22" viewBox="0 0 23 22" fill="none" xmlns="http://www.w3.org/2000/svg">
<path d="M11.5 15.2C13.2674 15.2 14.7 13.7674 14.7 12C14.7 10.2327 13.2674 8.80005 11.5 8.80005C9.73274 8.80005 8.30005 10.2327 8.30005 12C8.30005 13.7674 9.73274 15.2 11.5 15.2Z" fill="#39345A"/>
<path d="M8.5 2L6.67 4H3.5C2.4 4 1.5 4.9 1.5 6V18C1.5 19.1 2.4 20 3.5 20H19.5C20.6 20 21.5 19.1 21.5 18V6C21.5 4.9 20.6 4 19.5 4H16.33L14.5 2H8.5ZM11.5 17C8.74 17 6.5 14.76 6.5 12C6.5 9.24 8.74 7 11.5 7C14.26 7 16.5 9.24 16.5 12C16.5 14.76 14.26 17 11.5 17Z" fill="#39345A"/>
</svg>
